<mxfile host="Electron" modified="2023-10-15T13:17:50.094Z" agent="Mozilla/5.0 (Windows NT 10.0; Win64; x64) AppleWebKit/537.36 (KHTML, like Gecko) draw.io/21.6.8 Chrome/114.0.5735.289 Electron/25.5.0 Safari/537.36" etag="QmbvXV4LE7EGG5mJa9-k" version="21.6.8" type="device">
  <diagram id="OzJ3_87nc1oX2sXWsU7E" name="Page-2">
    <mxGraphModel dx="2268" dy="820" grid="1" gridSize="10" guides="1" tooltips="1" connect="1" arrows="1" fold="1" page="1" pageScale="1" pageWidth="850" pageHeight="1100" math="0" shadow="0">
      <root>
        <mxCell id="0" />
        <mxCell id="1" parent="0" />
        <mxCell id="r-BebP8_bE4lQk023MD0-10" value="" style="ellipse;whiteSpace=wrap;html=1;fillColor=#fff2cc;strokeColor=#d6b656;" parent="1" vertex="1">
          <mxGeometry x="270" y="260" width="420" height="286.5" as="geometry" />
        </mxCell>
        <mxCell id="r-BebP8_bE4lQk023MD0-9" value="" style="ellipse;whiteSpace=wrap;html=1;fillColor=#dae8fc;strokeColor=#6c8ebf;" parent="1" vertex="1">
          <mxGeometry x="-170" y="263.25" width="440" height="286.5" as="geometry" />
        </mxCell>
        <mxCell id="r-BebP8_bE4lQk023MD0-1" value="R2" style="shape=mxgraph.cisco.routers.router;sketch=0;html=1;pointerEvents=1;dashed=0;fillColor=#036897;strokeColor=#ffffff;strokeWidth=2;verticalLabelPosition=bottom;verticalAlign=top;align=center;outlineConnect=0;" parent="1" vertex="1">
          <mxGeometry x="230" y="380" width="78" height="53" as="geometry" />
        </mxCell>
        <mxCell id="r-BebP8_bE4lQk023MD0-2" value="R3" style="shape=mxgraph.cisco.routers.router;sketch=0;html=1;pointerEvents=1;dashed=0;fillColor=#036897;strokeColor=#ffffff;strokeWidth=2;verticalLabelPosition=bottom;verticalAlign=top;align=center;outlineConnect=0;" parent="1" vertex="1">
          <mxGeometry x="590" y="380" width="78" height="53" as="geometry" />
        </mxCell>
        <mxCell id="r-BebP8_bE4lQk023MD0-3" value="R1" style="shape=mxgraph.cisco.routers.router;sketch=0;html=1;pointerEvents=1;dashed=0;fillColor=#036897;strokeColor=#ffffff;strokeWidth=2;verticalLabelPosition=bottom;verticalAlign=top;align=center;outlineConnect=0;" parent="1" vertex="1">
          <mxGeometry x="-150" y="380" width="78" height="53" as="geometry" />
        </mxCell>
        <mxCell id="r-BebP8_bE4lQk023MD0-5" value="" style="endArrow=none;html=1;rounded=0;exitX=1;exitY=0.5;exitDx=0;exitDy=0;exitPerimeter=0;entryX=0;entryY=0.5;entryDx=0;entryDy=0;entryPerimeter=0;" parent="1" source="r-BebP8_bE4lQk023MD0-3" target="r-BebP8_bE4lQk023MD0-1" edge="1">
          <mxGeometry width="50" height="50" relative="1" as="geometry">
            <mxPoint x="240" y="430" as="sourcePoint" />
            <mxPoint x="290" y="380" as="targetPoint" />
          </mxGeometry>
        </mxCell>
        <mxCell id="r-BebP8_bE4lQk023MD0-6" value="" style="endArrow=none;html=1;rounded=0;exitX=1;exitY=0.5;exitDx=0;exitDy=0;exitPerimeter=0;entryX=0;entryY=0.5;entryDx=0;entryDy=0;entryPerimeter=0;" parent="1" source="r-BebP8_bE4lQk023MD0-1" target="r-BebP8_bE4lQk023MD0-2" edge="1">
          <mxGeometry width="50" height="50" relative="1" as="geometry">
            <mxPoint x="-112" y="417" as="sourcePoint" />
            <mxPoint x="240" y="417" as="targetPoint" />
          </mxGeometry>
        </mxCell>
        <mxCell id="r-BebP8_bE4lQk023MD0-7" value="&lt;font style=&quot;font-size: 24px;&quot;&gt;OSPF 10&amp;nbsp;&lt;/font&gt;" style="text;html=1;align=left;verticalAlign=middle;resizable=0;points=[];autosize=1;strokeColor=none;fillColor=none;" parent="1" vertex="1">
          <mxGeometry x="-15" y="310" width="130" height="40" as="geometry" />
        </mxCell>
        <mxCell id="r-BebP8_bE4lQk023MD0-8" value="&lt;font style=&quot;font-size: 24px;&quot;&gt;EIGRP AS 20&lt;/font&gt;" style="text;html=1;align=left;verticalAlign=middle;resizable=0;points=[];autosize=1;strokeColor=none;fillColor=none;" parent="1" vertex="1">
          <mxGeometry x="395" y="310" width="170" height="40" as="geometry" />
        </mxCell>
        <mxCell id="r-BebP8_bE4lQk023MD0-12" value="E0/0" style="text;html=1;align=center;verticalAlign=middle;resizable=0;points=[];autosize=1;strokeColor=none;fillColor=none;" parent="1" vertex="1">
          <mxGeometry x="-80" y="380" width="50" height="30" as="geometry" />
        </mxCell>
        <mxCell id="r-BebP8_bE4lQk023MD0-13" value="E0/0" style="text;html=1;align=center;verticalAlign=middle;resizable=0;points=[];autosize=1;strokeColor=none;fillColor=none;" parent="1" vertex="1">
          <mxGeometry x="180" y="380" width="50" height="30" as="geometry" />
        </mxCell>
        <mxCell id="r-BebP8_bE4lQk023MD0-14" value="E0/1" style="text;html=1;align=center;verticalAlign=middle;resizable=0;points=[];autosize=1;strokeColor=none;fillColor=none;" parent="1" vertex="1">
          <mxGeometry x="300" y="380" width="50" height="30" as="geometry" />
        </mxCell>
        <mxCell id="r-BebP8_bE4lQk023MD0-15" value="E0/0" style="text;html=1;align=center;verticalAlign=middle;resizable=0;points=[];autosize=1;strokeColor=none;fillColor=none;" parent="1" vertex="1">
          <mxGeometry x="540" y="380" width="50" height="30" as="geometry" />
        </mxCell>
        <mxCell id="r-BebP8_bE4lQk023MD0-16" value="&lt;font style=&quot;font-size: 16px;&quot;&gt;123.0.1.0/24&lt;br&gt;2001:123:0:1::/64&lt;br&gt;&lt;/font&gt;" style="text;html=1;align=center;verticalAlign=middle;resizable=0;points=[];autosize=1;strokeColor=none;fillColor=none;" parent="1" vertex="1">
          <mxGeometry x="-25" y="360" width="150" height="50" as="geometry" />
        </mxCell>
        <mxCell id="r-BebP8_bE4lQk023MD0-17" value="&lt;font style=&quot;font-size: 16px;&quot;&gt;123.0.2.0/24&lt;br&gt;2001:123:0:2::/64&lt;br&gt;&lt;/font&gt;" style="text;html=1;align=center;verticalAlign=middle;resizable=0;points=[];autosize=1;strokeColor=none;fillColor=none;" parent="1" vertex="1">
          <mxGeometry x="390" y="360" width="150" height="50" as="geometry" />
        </mxCell>
        <mxCell id="r-BebP8_bE4lQk023MD0-18" value="&lt;div style=&quot;text-align: left;&quot;&gt;&lt;span style=&quot;font-size: 16px; background-color: initial;&quot;&gt;Lo0 172.16.1.1/24&lt;/span&gt;&lt;/div&gt;&lt;font style=&quot;&quot;&gt;&lt;div style=&quot;font-size: 16px; text-align: left;&quot;&gt;&lt;span style=&quot;background-color: initial;&quot;&gt;Lo1 172.16.2.1/24&lt;/span&gt;&lt;/div&gt;&lt;div style=&quot;font-size: 16px; text-align: left;&quot;&gt;&lt;span style=&quot;background-color: initial;&quot;&gt;Lo2 172.16.3.1/24&lt;/span&gt;&lt;/div&gt;&lt;div style=&quot;text-align: left;&quot;&gt;&lt;span style=&quot;font-size: 16px;&quot;&gt;Lo3 172.16.4.1/26&amp;nbsp;&lt;/span&gt;&lt;/div&gt;&lt;div style=&quot;text-align: left;&quot;&gt;&lt;span style=&quot;font-size: 16px;&quot;&gt;Lo4 172.16.5.1/26&lt;/span&gt;&lt;/div&gt;&lt;div style=&quot;text-align: left;&quot;&gt;&lt;span style=&quot;font-size: 16px;&quot;&gt;&lt;br&gt;&lt;/span&gt;&lt;/div&gt;&lt;span style=&quot;font-size: 16px;&quot;&gt;&lt;div style=&quot;text-align: left;&quot;&gt;&lt;span style=&quot;background-color: initial;&quot;&gt;Lo0 2001:172:16:1::1/64&lt;/span&gt;&lt;/div&gt;&lt;/span&gt;&lt;span style=&quot;font-size: 16px;&quot;&gt;&lt;div style=&quot;text-align: left;&quot;&gt;&lt;span style=&quot;background-color: initial;&quot;&gt;Lo1 2001:172:16:2::1/64&lt;/span&gt;&lt;/div&gt;&lt;/span&gt;&lt;span style=&quot;font-size: 16px;&quot;&gt;&lt;div style=&quot;text-align: left;&quot;&gt;&lt;span style=&quot;background-color: initial;&quot;&gt;Lo2 2001:172:16:3::1/64&lt;/span&gt;&lt;/div&gt;&lt;div style=&quot;text-align: left;&quot;&gt;&lt;span style=&quot;background-color: initial;&quot;&gt;Lo3 2001:172:16:4::1/96&lt;/span&gt;&lt;/div&gt;&lt;div style=&quot;text-align: left;&quot;&gt;&lt;span style=&quot;background-color: initial;&quot;&gt;Lo4 2001:172:16:5::1/96&lt;/span&gt;&lt;/div&gt;&lt;/span&gt;&lt;/font&gt;" style="text;html=1;align=center;verticalAlign=middle;resizable=0;points=[];autosize=1;strokeColor=none;fillColor=none;" parent="1" vertex="1">
          <mxGeometry x="-370" y="293.25" width="200" height="220" as="geometry" />
        </mxCell>
        <mxCell id="r-BebP8_bE4lQk023MD0-19" value="&lt;div style=&quot;text-align: left;&quot;&gt;&lt;span style=&quot;font-size: 16px; background-color: initial;&quot;&gt;Lo0 192.168.1.1/24&lt;/span&gt;&lt;/div&gt;&lt;font style=&quot;&quot;&gt;&lt;div style=&quot;font-size: 16px; text-align: left;&quot;&gt;&lt;span style=&quot;background-color: initial;&quot;&gt;Lo1 192.168.2.1/24&lt;/span&gt;&lt;/div&gt;&lt;div style=&quot;font-size: 16px; text-align: left;&quot;&gt;&lt;span style=&quot;background-color: initial;&quot;&gt;Lo2 192.168.3.1/24&lt;/span&gt;&lt;/div&gt;&lt;div style=&quot;font-size: 16px; text-align: left;&quot;&gt;&lt;span style=&quot;background-color: initial;&quot;&gt;Lo3 192.168.4.1/32&lt;/span&gt;&lt;/div&gt;&lt;div style=&quot;font-size: 16px; text-align: left;&quot;&gt;&lt;span style=&quot;background-color: initial;&quot;&gt;Lo4 192.168.5.1/32&lt;/span&gt;&lt;/div&gt;&lt;div style=&quot;text-align: left;&quot;&gt;&lt;span style=&quot;font-size: 16px;&quot;&gt;&lt;br&gt;&lt;/span&gt;&lt;/div&gt;&lt;span style=&quot;font-size: 16px;&quot;&gt;&lt;div style=&quot;text-align: left;&quot;&gt;&lt;span style=&quot;background-color: initial;&quot;&gt;Lo0 2001:192:168:1::1/64&lt;/span&gt;&lt;/div&gt;&lt;/span&gt;&lt;span style=&quot;font-size: 16px;&quot;&gt;&lt;div style=&quot;text-align: left;&quot;&gt;&lt;span style=&quot;background-color: initial;&quot;&gt;Lo1 2001:192:168:2::1/64&lt;/span&gt;&lt;/div&gt;&lt;/span&gt;&lt;span style=&quot;font-size: 16px;&quot;&gt;&lt;div style=&quot;text-align: left;&quot;&gt;&lt;span style=&quot;background-color: initial;&quot;&gt;Lo2 2001:192:168:3::1/64&lt;/span&gt;&lt;/div&gt;&lt;div style=&quot;text-align: left;&quot;&gt;&lt;span style=&quot;background-color: initial;&quot;&gt;Lo3 2001:192:168:4::1/128&lt;/span&gt;&lt;/div&gt;&lt;div style=&quot;text-align: left;&quot;&gt;&lt;span style=&quot;background-color: initial;&quot;&gt;Lo4 2001:192:168:5::1/128&lt;/span&gt;&lt;/div&gt;&lt;/span&gt;&lt;/font&gt;" style="text;html=1;align=center;verticalAlign=middle;resizable=0;points=[];autosize=1;strokeColor=none;fillColor=none;" parent="1" vertex="1">
          <mxGeometry x="685" y="293.25" width="210" height="220" as="geometry" />
        </mxCell>
      </root>
    </mxGraphModel>
  </diagram>
</mxfile>
